#!OML:ASF E:\acrobat2\Project_11_07_03\Capture day 1\Session 1\Acrobat.ASF
:FULLY-SPECIFIED
:DEGREES
617
root 11.1166 14.2956 -10.3619 191.66 -1.98177 -177.395
lowerback 4.36023 1.18373 2.18303
upperback 3.55973 1.44225 -2.09017
thorax 1.33011 0.699464 -3.42223
lowerneck -1.4636 -2.24003 -0.813816
upperneck -10.9724 -3.26363 4.04456
head -3.18322 -1.98339 1.5449
rclavicle 1.98785e-015 -2.70347e-014
rhumerus 51.5482 -11.0449 -42.4984
rradius 22.3459
rwrist 6.72795
rhand -18.8672 318.9
rfingers 7.12502
rthumb 7.43333 -430.95
lclavicle 1.98785e-015 -2.70347e-014
lhumerus -10.8173 -22.9189 75.2645
lradius 12.3878
lwrist 7.13632
lhand -13.9968 -7.40434
lfingers 7.12502
lthumb 12.1322 22.2239
rfemur -0.690302 38.9323 -21.9423
rtibia -3.99024
rfoot -54.4579 -22.7386
rtoes 18.5069
lfemur -7.3918 -39.5552 34.2692
ltibia -7.96303
lfoot -52.8911 -20.2396
ltoes 56.0848
618
root 11.119 14.3039 -10.4334 191.112 -1.99081 -177.377
lowerback 3.98373 1.13913 2.10065
upperback 3.24127 1.40635 -2.0527
thorax 1.20484 0.687057 -3.33085
lowerneck -1.52575 -2.26054 -0.900352
upperneck -10.132 -3.2328 4.19007
head -2.88181 -1.93123 1.58362
rclavicle 4.57205e-015 -1.59028e-015
rhumerus 52.6145 -12.4008 -43.6564
rradius 22.2422
rwrist 8.40201
rhand -18.5416 318.722
rfingers 7.12502
rthumb 7.74761 -431.116
lclavicle 4.57205e-015 -1.59028e-015
lhumerus -12.1343 -22.6162 75.5182
lradius 12.347
lwrist 6.89096
lhand -14.4135 -7.77619
lfingers 7.12502
lthumb 11.7304 21.8754
rfemur 0.0669394 38.511 -21.3005
rtibia -3.8132
rfoot -53.5848 -22.5702
rtoes 18.0193
lfemur -6.55169 -39.533 33.6066
ltibia -7.94447
lfoot -52.4445 -19.9378
ltoes 56.0683
619
root 11.1221 14.3121 -10.5127 190.522 -1.95587 -177.403
lowerback 3.51313 1.11814 1.97934
upperback 3.00688 1.3929 -2.02946
thorax 1.2206 0.685456 -3.23047
lowerneck -1.6793 -2.26305 -0.991345
upperneck -9.26786 -3.18692 4.36298
head -2.56047 -1.87415 1.63004
rclavicle -2.18663e-015 -9.54166e-015
rhumerus 53.0706 -12.7911 -42.5984
rradius 22.5456
rwrist 7.88989
rhand -20.3513 318.297
rfingers 7.12502
rthumb 6.00064 -431.598
lclavicle -2.18663e-015 -9.54166e-015
lhumerus -13.3918 -21.9327 75.6742
lradius 12.5572
lwrist 6.11542
lhand -14.5982 -7.82816
lfingers 7.12502
lthumb 11.5523 21.8335
rfemur 0.954284 38.3438 -20.6221
rtibia -3.67304
rfoot -53.0285 -22.3559
rtoes 17.7796
lfemur -5.60073 -39.1967 32.7743
ltibia -7.8824
lfoot -51.8052 -19.3408
ltoes 55.9467
620
root 11.1264 14.318 -10.591 189.979 -1.97898 -177.443
lowerback 3.01816 1.08539 1.87108
upperback 2.81627 1.36019 -2.0264
thorax 1.29535 0.67411 -3.15742
lowerneck -2.16909 -2.29781 -0.805176
upperneck -8.26783 -3.21429 4.31257
head -2.1435 -1.85461 1.54777
rclavicle -3.18055e-015 2.3059e-014
rhumerus 53.6705 -13.3331 -41.5856
rradius 22.6757
rwrist 7.489
rhand -19.8106 318.631
rfingers 7.12502
rthumb 6.52268 -431.249
lclavicle -3.18055e-015 2.3059e-014
lhumerus -14.4239 -21.4 75.7506
lradius 12.6949
lwrist 5.24024
lhand -14.6185 -7.57456
lfingers 7.12502
lthumb 11.5327 22.0882
rfemur 1.93311 38.3512 -19.9315
rtibia -3.64388
rfoot -52.6784 -22.3808
rtoes 17.0392
lfemur -4.78791 -38.8362 32.0394
ltibia -7.7872
lfoot -51.0942 -18.8766
ltoes 55.7581
621
root 11.1277 14.3219 -10.6637 189.537 -2.02922 -177.52
lowerback 2.49164 1.0464 1.73705
upperback 2.59006 1.32016 -2.01666
thorax 1.35035 0.658444 -3.06304
lowerneck -2.65388 -2.32941 -0.70733
upperneck -7.19341 -3.23768 4.31101
head -1.71002 -1.82894 1.49756
rclavicle -1.19271e-015 1.59028e-015
rhumerus 54.4006 -14.3329 -41.5529
rradius 22.9881
rwrist 7.97886
rhand -18.5742 319.19
rfingers 7.12502
rthumb 7.71611 -430.649
lclavicle -1.19271e-015 1.59028e-015
lhumerus -15.3643 -20.916 75.8721
lradius 12.7657
lwrist 4.57966
lhand -14.5163 -7.14824
lfingers 7.12502
lthumb 11.6312 22.5089
rfemur 2.81984 38.2875 -19.3942
rtibia -3.6785
rfoot -52.334 -22.407
rtoes 16.2777
lfemur -4.05408 -39.0128 31.3804
ltibia -7.81243
lfoot -50.9069 -18.6528
ltoes 55.6251
622
root 11.1269 14.3248 -10.7375 189.116 -2.09212 -177.595
lowerback 1.95076 1.00649 1.6012
upperback 2.32309 1.28026 -1.98298
thorax 1.37154 0.642281 -2.94361
lowerneck -2.78742 -2.31019 -0.728451
upperneck -6.3678 -3.18662 4.44514
head -1.42233 -1.77446 1.5251
rclavicle -2.18663e-014 -2.38542e-015
rhumerus 55.0101 -15.0205 -40.877
rradius 23.2636
rwrist 7.89975
rhand -18.0759 319.251
rfingers 7.12502
rthumb 8.19705 -430.57
lclavicle -2.18663e-014 -2.38542e-015
lhumerus -16.4599 -20.8789 76.1377
lradius 12.9858
lwrist 4.71373
lhand -14.1477 -6.46348
lfingers 7.12502
lthumb 11.9867 23.1733
rfemur 3.64238 38.0278 -18.9002
rtibia -3.64515
rfoot -51.8373 -22.3267
rtoes 15.5725
lfemur -3.25818 -39.5244 30.6984
ltibia -7.91325
lfoot -51.0366 -18.632
ltoes 55.571
623
root 11.1324 14.3253 -10.8084 188.828 -2.12199 -177.466
lowerback 1.34464 1.00223 1.60529
upperback 2.0153 1.2902 -1.91478
thorax 1.39367 0.653358 -2.86715
lowerneck -2.73219 -2.27568 -0.674416
upperneck -5.82787 -3.12313 4.61243
head -1.26094 -1.7275 1.56035
rclavicle -1.27222e-014 1.74931e-014
rhumerus 55.7527 -15.7856 -40.3494
rradius 23.3562
rwrist 7.88874
rhand -18.0943 319.259
rfingers 7.12502
rthumb 8.17933 -430.563
lclavicle -1.27222e-014 1.74931e-014
lhumerus -17.6197 -20.8722 76.3642
lradius 13.3703
lwrist 5.0157
lhand -13.5907 -5.61797
lfingers 7.12502
lthumb 12.5238 23.9867
rfemur 4.21063 38.0681 -18.2647
rtibia -3.47896
rfoot -51.8274 -22.1636
rtoes 15.1659
lfemur -2.57301 -39.9873 30.3905
ltibia -8.00937
lfoot -51.2283 -18.7078
ltoes 55.5318
624
root 11.1372 14.3258 -10.8804 188.627 -2.17452 -177.294
lowerback 0.720555 0.990595 1.6945
upperback 1.69995 1.28693 -1.85192
thorax 1.41994 0.65786 -2.84405
lowerneck -2.83137 -2.25128 -0.619551
upperneck -5.28265 -3.08454 4.7671
head -1.07218 -1.69347 1.58918
rclavicle 3.97569e-016 1.74931e-014
rhumerus 56.6569 -16.7287 -40.2008
rradius 23.4518
rwrist 8.11115
rhand -17.8156 319.641
rfingers 7.12502
rthumb 8.44827 -430.17
lclavicle 3.97569e-016 1.74931e-014
lhumerus -18.6609 -20.8137 76.5841
lradius 13.5722
lwrist 5.18764
lhand -13.4412 -5.12852
lfingers 7.12502
lthumb 12.6678 24.4673
rfemur 4.84931 38.4845 -17.5167
rtibia -3.44018
rfoot -52.2349 -22.318
rtoes 14.5299
lfemur -2.00098 -40.5115 30.2016
ltibia -8.08156
lfoot -51.5412 -18.8824
ltoes 55.4965
625
root 11.1363 14.3268 -10.9564 188.355 -2.28748 -177.317
lowerback 0.21809 0.903455 1.6576
upperback 1.38416 1.17773 -1.82828
thorax 1.36927 0.604342 -2.79405
lowerneck -2.94457 -2.22988 -0.684102
upperneck -4.6962 -3.05034 5.00354
head -0.866433 -1.65921 1.66484
rclavicle 1.05356e-014 -8.74653e-015
rhumerus 57.4621 -17.4615 -39.7523
rradius 23.647
rwrist 8.00057
rhand -17.4931 320.113
rfingers 7.12502
rthumb 8.75949 -429.685
lclavicle 1.05356e-014 -8.74653e-015
lhumerus -19.7316 -20.6673 76.8257
lradius 13.7153
lwrist 5.24173
lhand -13.4134 -4.70027
lfingers 7.12502
lthumb 12.6947 24.8939
rfemur 5.7373 38.6901 -16.9091
rtibia -3.58339
rfoot -52.3254 -22.6698
rtoes 13.3106
lfemur -1.45277 -40.7736 29.7383
ltibia -8.06966
lfoot -51.4716 -19.0291
ltoes 55.4308
626
root 11.1376 14.3252 -11.0305 188.076 -2.29526 -177.363
lowerback -0.337146 0.829437 1.52122
upperback 1.1505 1.0822 -1.79145
thorax 1.43161 0.556601 -2.67401
lowerneck -2.5806 -2.33587 -0.347931
upperneck -4.72088 -3.19112 4.73371
head -0.939735 -1.73244 1.52686
rclavicle 1.19271e-015 -3.10104e-014
rhumerus 58.4349 -18.2876 -39.4398
rradius 23.7932
rwrist 7.87214
rhand -17.4412 320.353
rfingers 7.12502
rthumb 8.8096 -429.443
lclavicle 1.19271e-015 -3.10104e-014
lhumerus -20.5994 -20.3991 77.0257
lradius 13.7084
lwrist 5.25932
lhand -13.1976 -4.18423
lfingers 7.12502
lthumb 12.9027 25.3969
rfemur 6.49492 38.8339 -16.4363
rtibia -3.69299
rfoot -52.3512 -22.7154
rtoes 12.6869
lfemur -0.797164 -40.8193 29.2
ltibia -8.08194
lfoot -51.1994 -19.2085
ltoes 55.4455
627
root 11.141 14.3244 -11.1019 187.823 -2.2276 -177.283
lowerback -0.890313 0.824365 1.46714
upperback 0.930688 1.0775 -1.68988
thorax 1.51306 0.555178 -2.53271
lowerneck -1.44463 -2.81204 0.668503
upperneck -5.75771 -3.83227 3.43683
head -1.48117 -2.07883 0.98856
rclavicle 1.28216e-014 2.38542e-015
rhumerus 59.5485 -19.263 -39.2581
rradius 23.8246
rwrist 7.98049
rhand -17.1671 320.436
rfingers 7.12502
rthumb 9.07409 -429.349
lclavicle 1.28216e-014 2.38542e-015
lhumerus -21.5157 -20.5376 77.4247
lradius 13.729
lwrist 5.66559
lhand -13.2732 -4.09051
lfingers 7.12502
lthumb 12.8298 25.4952
rfemur 7.0366 38.9612 -15.9115
rtibia -3.62472
rfoot -52.3218 -22.5794
rtoes 12.5825
lfemur -0.00913968 -41.2201 28.7439
ltibia -8.186
lfoot -51.3839 -19.5028
ltoes 55.4378
628
root 11.143 14.3275 -11.17 187.585 -2.2657 -177.115
lowerback -1.2419 0.821843 1.56977
upperback 0.566428 1.07377 -1.5633
thorax 1.33582 0.551595 -2.45792
lowerneck -1.78037 -2.87993 0.707695
upperneck -4.90133 -3.92224 3.42476
head -1.15313 -2.09661 0.956395
rclavicle -1.33186e-014 7.95139e-016
rhumerus 59.18 -19.2587 -35.9092
rradius 24.3279
rwrist 5.31823
rhand -17.0821 319.874
rfingers 7.12502
rthumb 9.15608 -429.907
lclavicle -1.33186e-014 7.95139e-016
lhumerus -22.6927 -20.7061 77.9252
lradius 13.8956
lwrist 6.00456
lhand -13.2732 -4.06697
lfingers 7.12502
lthumb 12.8298 25.5187
rfemur 7.62377 39.1419 -15.1976
rtibia -3.50136
rfoot -52.4571 -22.4953
rtoes 12.5319
lfemur 0.612482 -41.5977 28.48
ltibia -8.24063
lfoot -51.6221 -19.4977
ltoes 55.2846
629
root 11.1446 14.3286 -11.2381 187.371 -2.28379 -176.994
lowerback -1.59278 0.823265 1.66076
upperback 0.183298 1.07083 -1.48258
thorax 1.13968 0.545814 -2.42412
lowerneck -1.72883 -2.94078 0.744928
upperneck -4.44045 -3.99491 3.45077
head -1.01696 -2.11916 0.951633
rclavicle 1.09332e-015 3.81667e-014
rhumerus 60.7814 -20.6761 -37.5412
rradius 24.2772
rwrist 7.40199
rhand -16.9196 320.131
rfingers 7.12502
rthumb 9.31289 -429.643
lclavicle 1.09332e-015 3.81667e-014
lhumerus -23.7023 -20.411 78.2187
lradius 13.9869
lwrist 5.93483
lhand -12.8355 -3.66635
lfingers 7.12502
lthumb 13.2518 25.8924
rfemur 8.23914 39.4376 -14.5175
rtibia -3.43237
rfoot -52.7559 -22.424
rtoes 12.5564
lfemur 1.2459 -41.9708 28.1461
ltibia -8.30702
lfoot -51.9351 -19.4208
ltoes 55.1549
